<svg width="354" height="75" viewBox="0 0 354 75" fill="none" xmlns="http://www.w3.org/2000/svg">
<mask id="path-1-outside-1_2004_326" maskUnits="userSpaceOnUse" x="-0.508301" y="-0.800049" width="354" height="76" fill="black">
<rect fill="white" x="-0.508301" y="-0.800049" width="354" height="76"/>
<path d="M0.999903 72.2V2.19995H17.7999V29.6999H45.0999V2.19995H61.8999V72.2H45.0999V43.6999H17.7999V72.2H0.999903ZM103.644 73.4C97.8444 73.4 92.6778 72.2333 88.1444 69.9C83.6778 67.5666 80.1778 64.2333 77.6444 59.9C75.1111 55.5666 73.8444 50.3999 73.8444 44.3999V2.19995H90.4444V45.2999C90.4444 47.9 90.9778 50.2666 92.0444 52.3999C93.1111 54.4666 94.6444 56.1333 96.6444 57.4C98.6444 58.6 100.978 59.2 103.644 59.2C106.378 59.2 108.711 58.6 110.644 57.4C112.644 56.1333 114.178 54.4666 115.244 52.3999C116.311 50.2666 116.844 47.9 116.844 45.2999V2.19995H133.444V44.3999C133.444 50.3999 132.144 55.5666 129.544 59.9C127.011 64.2333 123.511 67.5666 119.044 69.9C114.578 72.2333 109.444 73.4 103.644 73.4ZM194.538 73.4C190.338 73.4 186.572 72.5 183.238 70.7C179.905 68.8333 177.272 66.2666 175.338 63C173.405 59.7333 172.438 56.0333 172.438 51.9V21.3C172.438 20.2333 172.172 19.2666 171.638 18.3999C171.105 17.5333 170.405 16.8333 169.538 16.2999C168.672 15.7666 167.705 15.4999 166.638 15.4999C165.572 15.4999 164.605 15.7666 163.738 16.2999C162.872 16.8333 162.172 17.5333 161.638 18.3999C161.172 19.2666 160.938 20.2333 160.938 21.3V72.2H144.538V22.5C144.538 18.3 145.472 14.5999 147.338 11.3999C149.272 8.19995 151.905 5.66662 155.238 3.79995C158.638 1.93328 162.438 0.99995 166.638 0.99995C170.905 0.99995 174.705 1.93328 178.038 3.79995C181.372 5.66662 184.005 8.19995 185.938 11.3999C187.872 14.5999 188.838 18.3 188.838 22.5V53.0999C188.838 54.1666 189.105 55.1666 189.638 56.0999C190.172 56.9666 190.838 57.6666 191.638 58.2C192.505 58.6666 193.438 58.9 194.438 58.9C195.505 58.9 196.472 58.6666 197.338 58.2C198.272 57.6666 199.005 56.9666 199.538 56.0999C200.072 55.1666 200.338 54.1666 200.338 53.0999V2.19995H216.638V51.9C216.638 56.0333 215.672 59.7333 213.738 63C211.805 66.2666 209.172 68.8333 205.838 70.7C202.505 72.5 198.738 73.4 194.538 73.4ZM222.146 72.2L244.846 10.2999C245.979 7.23328 247.846 4.93328 250.446 3.39995C253.046 1.79995 255.979 0.99995 259.246 0.99995C262.513 0.99995 265.446 1.76662 268.046 3.29995C270.646 4.76661 272.513 7.06661 273.646 10.2L296.446 72.2H278.346L273.946 58.7H244.246L239.646 72.2H222.146ZM248.546 44.7999H269.646L260.746 16.8999C260.613 16.4999 260.413 16.2333 260.146 16.0999C259.946 15.8999 259.679 15.8 259.346 15.8C259.013 15.8 258.713 15.8999 258.446 16.0999C258.246 16.2999 258.113 16.5666 258.046 16.8999L248.546 44.7999ZM314.378 72.2V53.0999C310.111 52.0999 306.378 50.3666 303.178 47.8999C300.045 45.3666 297.611 42.1999 295.878 38.3999C294.145 34.5333 293.278 30.0999 293.278 25.0999V2.19995H309.678V25.9999C309.678 28.5333 310.211 30.8666 311.278 32.9999C312.345 35.0666 313.845 36.7333 315.778 38C317.778 39.2 320.111 39.8 322.778 39.8C325.445 39.8 327.745 39.2 329.678 38C331.678 36.7333 333.211 35.0666 334.278 32.9999C335.345 30.8666 335.878 28.5333 335.878 25.9999V2.19995H352.278V25.0999C352.278 30.0999 351.411 34.5333 349.678 38.3999C347.945 42.1999 345.478 45.3666 342.278 47.8999C339.078 50.4333 335.345 52.1666 331.078 53.0999V72.2H314.378Z"/>
</mask>
<path d="M0.999903 72.2V2.19995H17.7999V29.6999H45.0999V2.19995H61.8999V72.2H45.0999V43.6999H17.7999V72.2H0.999903ZM103.644 73.4C97.8444 73.4 92.6778 72.2333 88.1444 69.9C83.6778 67.5666 80.1778 64.2333 77.6444 59.9C75.1111 55.5666 73.8444 50.3999 73.8444 44.3999V2.19995H90.4444V45.2999C90.4444 47.9 90.9778 50.2666 92.0444 52.3999C93.1111 54.4666 94.6444 56.1333 96.6444 57.4C98.6444 58.6 100.978 59.2 103.644 59.2C106.378 59.2 108.711 58.6 110.644 57.4C112.644 56.1333 114.178 54.4666 115.244 52.3999C116.311 50.2666 116.844 47.9 116.844 45.2999V2.19995H133.444V44.3999C133.444 50.3999 132.144 55.5666 129.544 59.9C127.011 64.2333 123.511 67.5666 119.044 69.9C114.578 72.2333 109.444 73.4 103.644 73.4ZM194.538 73.4C190.338 73.4 186.572 72.5 183.238 70.7C179.905 68.8333 177.272 66.2666 175.338 63C173.405 59.7333 172.438 56.0333 172.438 51.9V21.3C172.438 20.2333 172.172 19.2666 171.638 18.3999C171.105 17.5333 170.405 16.8333 169.538 16.2999C168.672 15.7666 167.705 15.4999 166.638 15.4999C165.572 15.4999 164.605 15.7666 163.738 16.2999C162.872 16.8333 162.172 17.5333 161.638 18.3999C161.172 19.2666 160.938 20.2333 160.938 21.3V72.2H144.538V22.5C144.538 18.3 145.472 14.5999 147.338 11.3999C149.272 8.19995 151.905 5.66662 155.238 3.79995C158.638 1.93328 162.438 0.99995 166.638 0.99995C170.905 0.99995 174.705 1.93328 178.038 3.79995C181.372 5.66662 184.005 8.19995 185.938 11.3999C187.872 14.5999 188.838 18.3 188.838 22.5V53.0999C188.838 54.1666 189.105 55.1666 189.638 56.0999C190.172 56.9666 190.838 57.6666 191.638 58.2C192.505 58.6666 193.438 58.9 194.438 58.9C195.505 58.9 196.472 58.6666 197.338 58.2C198.272 57.6666 199.005 56.9666 199.538 56.0999C200.072 55.1666 200.338 54.1666 200.338 53.0999V2.19995H216.638V51.9C216.638 56.0333 215.672 59.7333 213.738 63C211.805 66.2666 209.172 68.8333 205.838 70.7C202.505 72.5 198.738 73.4 194.538 73.4ZM222.146 72.2L244.846 10.2999C245.979 7.23328 247.846 4.93328 250.446 3.39995C253.046 1.79995 255.979 0.99995 259.246 0.99995C262.513 0.99995 265.446 1.76662 268.046 3.29995C270.646 4.76661 272.513 7.06661 273.646 10.2L296.446 72.2H278.346L273.946 58.7H244.246L239.646 72.2H222.146ZM248.546 44.7999H269.646L260.746 16.8999C260.613 16.4999 260.413 16.2333 260.146 16.0999C259.946 15.8999 259.679 15.8 259.346 15.8C259.013 15.8 258.713 15.8999 258.446 16.0999C258.246 16.2999 258.113 16.5666 258.046 16.8999L248.546 44.7999ZM314.378 72.2V53.0999C310.111 52.0999 306.378 50.3666 303.178 47.8999C300.045 45.3666 297.611 42.1999 295.878 38.3999C294.145 34.5333 293.278 30.0999 293.278 25.0999V2.19995H309.678V25.9999C309.678 28.5333 310.211 30.8666 311.278 32.9999C312.345 35.0666 313.845 36.7333 315.778 38C317.778 39.2 320.111 39.8 322.778 39.8C325.445 39.8 327.745 39.2 329.678 38C331.678 36.7333 333.211 35.0666 334.278 32.9999C335.345 30.8666 335.878 28.5333 335.878 25.9999V2.19995H352.278V25.0999C352.278 30.0999 351.411 34.5333 349.678 38.3999C347.945 42.1999 345.478 45.3666 342.278 47.8999C339.078 50.4333 335.345 52.1666 331.078 53.0999V72.2H314.378Z" fill="#570342"/>
<path d="M0.999903 72.2H-9.72748e-05V73.2H0.999903V72.2ZM0.999903 2.19994V1.19994H-9.72748e-05V2.19994H0.999903ZM17.7999 2.19994H18.7999V1.19994H17.7999V2.19994ZM17.7999 29.7H16.7999V30.7H17.7999V29.7ZM45.0999 29.7V30.7H46.0999V29.7H45.0999ZM45.0999 2.19994V1.19994H44.0999V2.19994H45.0999ZM61.8999 2.19994H62.8999V1.19994H61.8999V2.19994ZM61.8999 72.2V73.2H62.8999V72.2H61.8999ZM45.0999 72.2H44.0999V73.2H45.0999V72.2ZM45.0999 43.7H46.0999V42.7H45.0999V43.7ZM17.7999 43.7V42.7H16.7999V43.7H17.7999ZM17.7999 72.2V73.2H18.7999V72.2H17.7999ZM0.999903 72.2H1.9999V2.19994H0.999903H-9.72748e-05V72.2H0.999903ZM0.999903 2.19994V3.19994H17.7999V2.19994V1.19994H0.999903V2.19994ZM17.7999 2.19994H16.7999V29.7H17.7999H18.7999V2.19994H17.7999ZM17.7999 29.7V30.7H45.0999V29.7V28.7H17.7999V29.7ZM45.0999 29.7H46.0999V2.19994H45.0999H44.0999V29.7H45.0999ZM45.0999 2.19994V3.19994H61.8999V2.19994V1.19994H45.0999V2.19994ZM61.8999 2.19994H60.8999V72.2H61.8999H62.8999V2.19994H61.8999ZM61.8999 72.2V71.2H45.0999V72.2V73.2H61.8999V72.2ZM45.0999 72.2H46.0999V43.7H45.0999H44.0999V72.2H45.0999ZM45.0999 43.7V42.7H17.7999V43.7V44.7H45.0999V43.7ZM17.7999 43.7H16.7999V72.2H17.7999H18.7999V43.7H17.7999ZM17.7999 72.2V71.2H0.999903V72.2V73.2H17.7999V72.2ZM88.1444 69.8999L87.6814 70.7863L87.6868 70.7891L88.1444 69.8999ZM77.6444 59.9L76.7811 60.4046V60.4046L77.6444 59.9ZM73.8444 2.19994V1.19994H72.8444V2.19994H73.8444ZM90.4444 2.19994H91.4444V1.19994H90.4444V2.19994ZM92.0444 52.3999L91.1499 52.8472L91.1558 52.8586L92.0444 52.3999ZM96.6444 57.4L96.1094 58.2448L96.1196 58.2512L96.1299 58.2574L96.6444 57.4ZM110.644 57.4L111.172 58.2496L111.179 58.2448L110.644 57.4ZM115.244 52.3999L116.133 52.8586L116.139 52.8472L115.244 52.3999ZM116.844 2.19994V1.19994H115.844V2.19994H116.844ZM133.444 2.19994H134.444V1.19994H133.444V2.19994ZM129.544 59.9L128.687 59.3854L128.681 59.3953L129.544 59.9ZM119.044 69.8999L119.507 70.7863V70.7863L119.044 69.8999ZM103.644 73.3999V72.3999C97.9816 72.3999 92.9755 71.2618 88.6021 69.0108L88.1444 69.8999L87.6868 70.7891C92.3801 73.2048 97.7073 74.3999 103.644 74.3999V73.3999ZM88.1444 69.8999L88.6075 69.0136C84.3067 66.767 80.9458 63.5656 78.5077 59.3953L77.6444 59.9L76.7811 60.4046C79.4098 64.901 83.0488 68.3663 87.6814 70.7863L88.1444 69.8999ZM77.6444 59.9L78.5077 59.3953C76.08 55.2425 74.8444 50.2573 74.8444 44.3999H73.8444H72.8444C72.8444 50.5426 74.1422 55.8907 76.7811 60.4046L77.6444 59.9ZM73.8444 44.3999H74.8444V2.19994H73.8444H72.8444V44.3999H73.8444ZM73.8444 2.19994V3.19994H90.4444V2.19994V1.19994H73.8444V2.19994ZM90.4444 2.19994H89.4444V45.2999H90.4444H91.4444V2.19994H90.4444ZM90.4444 45.2999H89.4444C89.4444 48.041 90.0078 50.5628 91.15 52.8472L92.0444 52.3999L92.9389 51.9527C91.9477 49.9705 91.4444 47.7589 91.4444 45.2999H90.4444ZM92.0444 52.3999L91.1558 52.8586C92.3055 55.086 93.9621 56.8848 96.1094 58.2448L96.6444 57.4L97.1795 56.5551C95.3267 55.3817 93.9167 53.8472 92.9331 51.9413L92.0444 52.3999ZM96.6444 57.4L96.1299 58.2574C98.3066 59.5634 100.823 60.2 103.644 60.2V59.2V58.2C101.133 58.2 98.9823 57.6365 97.1589 56.5425L96.6444 57.4ZM103.644 59.2V60.2C106.526 60.2 109.051 59.5661 111.172 58.2496L110.644 57.4L110.117 56.5503C108.371 57.6339 106.229 58.2 103.644 58.2V59.2ZM110.644 57.4L111.179 58.2448C113.327 56.8848 114.983 55.086 116.133 52.8586L115.244 52.3999L114.356 51.9413C113.372 53.8472 111.962 55.3817 110.109 56.5551L110.644 57.4ZM115.244 52.3999L116.139 52.8472C117.281 50.5628 117.844 48.041 117.844 45.2999H116.844H115.844C115.844 47.7589 115.341 49.9705 114.35 51.9527L115.244 52.3999ZM116.844 45.2999H117.844V2.19994H116.844H115.844V45.2999H116.844ZM116.844 2.19994V3.19994H133.444V2.19994V1.19994H116.844V2.19994ZM133.444 2.19994H132.444V44.3999H133.444H134.444V2.19994H133.444ZM133.444 44.3999H132.444C132.444 50.2529 131.178 55.2345 128.687 59.3855L129.544 59.9L130.402 60.4144C133.111 55.8988 134.444 50.547 134.444 44.3999H133.444ZM129.544 59.9L128.681 59.3953C126.243 63.5656 122.882 66.767 118.581 69.0136L119.044 69.8999L119.507 70.7863C124.14 68.3663 127.779 64.901 130.408 60.4046L129.544 59.9ZM119.044 69.8999L118.581 69.0136C114.278 71.2617 109.308 72.3999 103.644 72.3999V73.3999V74.3999C109.581 74.3999 114.878 73.2049 119.507 70.7863L119.044 69.8999ZM183.238 70.7L182.75 71.5725L182.756 71.5762L182.763 71.5799L183.238 70.7ZM175.338 63L176.199 62.4906V62.4906L175.338 63ZM171.638 18.3999L172.49 17.8759V17.8758L171.638 18.3999ZM169.538 16.2999L170.062 15.4483V15.4483L169.538 16.2999ZM161.638 18.3999L160.787 17.8758L160.771 17.9004L160.758 17.9258L161.638 18.3999ZM160.938 72.2V73.2H161.938V72.2H160.938ZM144.538 72.2H143.538V73.2H144.538V72.2ZM147.338 11.3999L146.482 10.8828L146.478 10.8894L146.474 10.8961L147.338 11.3999ZM155.238 3.79995L154.757 2.92334L154.75 2.92744L155.238 3.79995ZM178.038 3.79995L178.527 2.92744V2.92744L178.038 3.79995ZM185.938 11.3999L186.794 10.8828V10.8828L185.938 11.3999ZM189.638 56.0999L188.77 56.5961L188.778 56.6102L188.787 56.624L189.638 56.0999ZM191.638 58.2L191.083 59.032L191.123 59.0581L191.164 59.0804L191.638 58.2ZM197.338 58.2L197.812 59.0804L197.823 59.0744L197.834 59.0682L197.338 58.2ZM199.538 56.0999L200.39 56.624L200.398 56.6102L200.406 56.5961L199.538 56.0999ZM200.338 2.19994V1.19994H199.338V2.19994H200.338ZM216.638 2.19994H217.638V1.19994H216.638V2.19994ZM213.738 63L214.599 63.5093V63.5093L213.738 63ZM205.838 70.7L206.313 71.5799L206.32 71.5762L206.327 71.5725L205.838 70.7ZM194.538 73.3999V72.3999C190.486 72.3999 186.885 71.5329 183.713 69.82L183.238 70.7L182.763 71.5799C186.258 73.467 190.191 74.3999 194.538 74.3999V73.3999ZM183.238 70.7L183.727 69.8274C180.546 68.0463 178.042 65.6045 176.199 62.4906L175.338 63L174.478 63.5093C176.501 66.9287 179.263 69.6202 182.75 71.5725L183.238 70.7ZM175.338 63L176.199 62.4906C174.365 59.3917 173.438 55.8705 173.438 51.8999H172.438H171.438C171.438 56.196 172.445 60.0748 174.478 63.5093L175.338 63ZM172.438 51.8999H173.438V21.2999H172.438H171.438V51.8999H172.438ZM172.438 21.2999H173.438C173.438 20.0576 173.125 18.9079 172.49 17.8759L171.638 18.3999L170.787 18.924C171.218 19.6253 171.438 20.409 171.438 21.2999H172.438ZM171.638 18.3999L172.49 17.8758C171.874 16.8759 171.062 16.0637 170.062 15.4483L169.538 16.2999L169.014 17.1516C169.747 17.6029 170.335 18.1907 170.787 18.924L171.638 18.3999ZM169.538 16.2999L170.062 15.4483C169.03 14.8132 167.881 14.4999 166.638 14.4999V15.4999V16.4999C167.529 16.4999 168.313 16.72 169.014 17.1516L169.538 16.2999ZM166.638 15.4999V14.4999C165.396 14.4999 164.246 14.8132 163.214 15.4483L163.738 16.2999L164.262 17.1516C164.964 16.72 165.747 16.4999 166.638 16.4999V15.4999ZM163.738 16.2999L163.214 15.4483C162.214 16.0637 161.402 16.8759 160.787 17.8758L161.638 18.3999L162.49 18.924C162.941 18.1907 163.529 17.6029 164.262 17.1516L163.738 16.2999ZM161.638 18.3999L160.758 17.9258C160.206 18.9502 159.938 20.082 159.938 21.2999H160.938H161.938C161.938 20.3846 162.137 19.583 162.519 18.874L161.638 18.3999ZM160.938 21.2999H159.938V72.2H160.938H161.938V21.2999H160.938ZM160.938 72.2V71.2H144.538V72.2V73.2H160.938V72.2ZM144.538 72.2H145.538V22.5H144.538H143.538V72.2H144.538ZM144.538 22.5H145.538C145.538 18.4529 146.436 14.9313 148.202 11.9038L147.338 11.3999L146.474 10.8961C144.507 14.2686 143.538 18.147 143.538 22.5H144.538ZM147.338 11.3999L148.194 11.9171C150.036 8.8687 152.541 6.45641 155.727 4.67245L155.238 3.79995L154.75 2.92744C151.269 4.87682 148.507 7.5312 146.482 10.8828L147.338 11.3999ZM155.238 3.79995L155.719 4.67653C158.96 2.89745 162.592 1.99995 166.638 1.99995V0.999947V-5.34058e-05C162.284 -5.34058e-05 158.316 0.969109 154.757 2.92337L155.238 3.79995ZM166.638 0.999947V1.99995C170.754 1.99995 174.382 2.89881 177.55 4.67245L178.038 3.79995L178.527 2.92744C175.027 0.967758 171.056 -5.34058e-05 166.638 -5.34058e-05V0.999947ZM178.038 3.79995L177.55 4.67245C180.735 6.45641 183.241 8.8687 185.082 11.9171L185.938 11.3999L186.794 10.8828C184.769 7.5312 182.008 4.87682 178.527 2.92744L178.038 3.79995ZM185.938 11.3999L185.082 11.9171C186.91 14.9424 187.838 18.4592 187.838 22.5H188.838H189.838C189.838 18.1407 188.833 14.2575 186.794 10.8828L185.938 11.3999ZM188.838 22.5H187.838V53.0999H188.838H189.838V22.5H188.838ZM188.838 53.0999H187.838C187.838 54.3421 188.151 55.5129 188.77 56.5961L189.638 56.0999L190.506 55.6038C190.059 54.8203 189.838 53.9912 189.838 53.0999H188.838ZM189.638 56.0999L188.787 56.624C189.391 57.6063 190.156 58.414 191.083 59.032L191.638 58.2L192.193 57.3679C191.52 56.9192 190.952 56.327 190.49 55.5759L189.638 56.0999ZM191.638 58.2L191.164 59.0804C192.179 59.6268 193.275 59.9 194.438 59.9V58.9V57.9C193.601 57.9 192.831 57.7064 192.112 57.3195L191.638 58.2ZM194.438 58.9V59.9C195.656 59.9 196.788 59.632 197.812 59.0804L197.338 58.2L196.864 57.3195C196.155 57.7012 195.354 57.9 194.438 57.9V58.9ZM197.338 58.2L197.834 59.0682C198.905 58.4566 199.764 57.6415 200.39 56.624L199.538 56.0999L198.687 55.5759C198.246 56.2917 197.638 56.8767 196.842 57.3317L197.338 58.2ZM199.538 56.0999L200.406 56.5961C201.025 55.5129 201.338 54.3421 201.338 53.0999H200.338H199.338C199.338 53.9912 199.118 54.8203 198.67 55.6038L199.538 56.0999ZM200.338 53.0999H201.338V2.19994H200.338H199.338V53.0999H200.338ZM200.338 2.19994V3.19994H216.638V2.19994V1.19994H200.338V2.19994ZM216.638 2.19994H215.638V51.8999H216.638H217.638V2.19994H216.638ZM216.638 51.8999H215.638C215.638 55.8705 214.712 59.3917 212.878 62.4906L213.738 63L214.599 63.5093C216.631 60.0748 217.638 56.196 217.638 51.8999H216.638ZM213.738 63L212.878 62.4906C211.035 65.6045 208.53 68.0463 205.35 69.8274L205.838 70.7L206.327 71.5725C209.813 69.6202 212.575 66.9287 214.599 63.5093L213.738 63ZM205.838 70.7L205.363 69.82C202.191 71.5329 198.591 72.3999 194.538 72.3999V73.3999V74.3999C198.886 74.3999 202.819 73.467 206.313 71.5799L205.838 70.7ZM222.146 72.2L221.207 71.8557L220.714 73.2H222.146V72.2ZM244.846 10.2999L243.908 9.9533L243.907 9.95565L244.846 10.2999ZM250.446 3.39995L250.954 4.26131L250.962 4.25654L250.97 4.25161L250.446 3.39995ZM268.046 3.29995L267.538 4.16132L267.546 4.16621L267.555 4.17093L268.046 3.29995ZM273.646 10.2L272.706 10.5401L272.707 10.5451L273.646 10.2ZM296.446 72.2V73.2H297.879L297.385 71.8548L296.446 72.2ZM278.346 72.2L277.395 72.5098L277.62 73.2H278.346V72.2ZM273.946 58.7L274.897 58.3901L274.672 57.7H273.946V58.7ZM244.246 58.7V57.7H243.53L243.299 58.3774L244.246 58.7ZM239.646 72.2V73.2H240.362L240.593 72.5225L239.646 72.2ZM248.546 44.7999L247.599 44.4776L247.149 45.7999H248.546V44.7999ZM269.646 44.7999V45.7999H271.015L270.599 44.496L269.646 44.7999ZM260.746 16.8999L261.699 16.596L261.695 16.5837L260.746 16.8999ZM260.146 16.0999L259.439 16.8071L259.554 16.9218L259.699 16.9944L260.146 16.0999ZM258.446 16.0999L257.846 15.2999L257.789 15.3426L257.739 15.3928L258.446 16.0999ZM258.046 16.8999L258.993 17.2223L259.014 17.1603L259.027 17.0961L258.046 16.8999ZM222.146 72.2L223.085 72.5443L245.785 10.6442L244.846 10.2999L243.907 9.95565L221.207 71.8557L222.146 72.2ZM244.846 10.2999L245.784 10.6466C246.845 7.77666 248.569 5.66769 250.954 4.26131L250.446 3.39995L249.938 2.53858C247.123 4.19888 245.114 6.6899 243.908 9.9533L244.846 10.2999ZM250.446 3.39995L250.97 4.25161C253.401 2.75543 256.151 1.99995 259.246 1.99995V0.999947V-5.34058e-05C255.808 -5.34058e-05 252.691 0.844467 249.922 2.54829L250.446 3.39995ZM259.246 0.999947V1.99995C262.349 1.99995 265.104 2.72617 267.538 4.16132L268.046 3.29995L268.554 2.43858C265.788 0.807068 262.676 -5.34058e-05 259.246 -5.34058e-05V0.999947ZM268.046 3.29995L267.555 4.17093C269.922 5.50623 271.644 7.60375 272.706 10.5401L273.646 10.2L274.586 9.85981C273.382 6.52948 271.37 4.027 268.537 2.42897L268.046 3.29995ZM273.646 10.2L272.707 10.5451L295.507 72.5451L296.446 72.2L297.385 71.8548L274.585 9.8548L273.646 10.2ZM296.446 72.2V71.2H278.346V72.2V73.2H296.446V72.2ZM278.346 72.2L279.297 71.8901L274.897 58.3901L273.946 58.7L272.995 59.0098L277.395 72.5098L278.346 72.2ZM273.946 58.7V57.7H244.246V58.7V59.7H273.946V58.7ZM244.246 58.7L243.299 58.3774L238.699 71.8774L239.646 72.2L240.593 72.5225L245.193 59.0225L244.246 58.7ZM239.646 72.2V71.2H222.146V72.2V73.2H239.646V72.2ZM248.546 44.7999V45.7999H269.646V44.7999V43.7999H248.546V44.7999ZM269.646 44.7999L270.599 44.496L261.699 16.596L260.746 16.8999L259.793 17.2039L268.693 45.1039L269.646 44.7999ZM260.746 16.8999L261.695 16.5837C261.513 16.0375 261.181 15.4993 260.593 15.2055L260.146 16.0999L259.699 16.9944C259.678 16.9838 259.678 16.976 259.696 16.9999C259.717 17.028 259.756 17.0924 259.797 17.2162L260.746 16.8999ZM260.146 16.0999L260.853 15.3928C260.432 14.9721 259.894 14.7999 259.346 14.7999V15.7999V16.7999C259.413 16.7999 259.441 16.8099 259.445 16.8113C259.447 16.812 259.446 16.8117 259.443 16.8099C259.44 16.808 259.438 16.8066 259.439 16.8071L260.146 16.0999ZM259.346 15.7999V14.7999C258.796 14.7999 258.286 14.9701 257.846 15.2999L258.446 16.0999L259.046 16.9C259.14 16.8298 259.229 16.7999 259.346 16.7999V15.7999ZM258.446 16.0999L257.739 15.3928C257.373 15.7585 257.163 16.2165 257.065 16.7038L258.046 16.8999L259.027 17.0961C259.062 16.9167 259.119 16.8414 259.153 16.807L258.446 16.0999ZM258.046 16.8999L257.099 16.5776L247.599 44.4776L248.546 44.7999L249.493 45.1223L258.993 17.2223L258.046 16.8999ZM314.378 72.2H313.378V73.2H314.378V72.2ZM314.378 53.0999H315.378V52.3072L314.606 52.1263L314.378 53.0999ZM303.178 47.8999L302.549 48.6776L302.558 48.6849L302.568 48.692L303.178 47.8999ZM295.878 38.3999L294.965 38.809L294.968 38.815L295.878 38.3999ZM293.278 2.19994V1.19994H292.278V2.19994H293.278ZM309.678 2.19994H310.678V1.19994H309.678V2.19994ZM311.278 33L310.384 33.4472L310.389 33.4586L311.278 33ZM315.778 38L315.23 38.8364L315.247 38.8473L315.264 38.8574L315.778 38ZM329.678 38L330.205 38.8496L330.213 38.8448L329.678 38ZM334.278 33L335.167 33.4586L335.172 33.4472L334.278 33ZM335.878 2.19994V1.19994H334.878V2.19994H335.878ZM352.278 2.19994H353.278V1.19994H352.278V2.19994ZM349.678 38.3999L350.588 38.815L350.591 38.809L349.678 38.3999ZM342.278 47.8999L342.899 48.684V48.684L342.278 47.8999ZM331.078 53.0999L330.864 52.123L330.078 52.2951V53.0999H331.078ZM331.078 72.2V73.2H332.078V72.2H331.078ZM314.378 72.2H315.378V53.0999H314.378H313.378V72.2H314.378ZM314.378 53.0999L314.606 52.1263C310.467 51.1561 306.866 49.4803 303.789 47.1079L303.178 47.8999L302.568 48.692C305.89 51.2529 309.756 53.0438 314.15 54.0736L314.378 53.0999ZM303.178 47.8999L303.807 47.1223C300.798 44.6901 298.459 41.6492 296.788 37.9849L295.878 38.3999L294.968 38.815C296.763 42.7507 299.291 46.0432 302.549 48.6776L303.178 47.8999ZM295.878 38.3999L296.791 37.9909C295.124 34.2739 294.278 29.984 294.278 25.0999H293.278H292.278C292.278 30.2159 293.165 34.7926 294.966 38.809L295.878 38.3999ZM293.278 25.0999H294.278V2.19994H293.278H292.278V25.0999H293.278ZM293.278 2.19994V3.19994H309.678V2.19994V1.19994H293.278V2.19994ZM309.678 2.19994H308.678V26H309.678H310.678V2.19994H309.678ZM309.678 26H308.678C308.678 28.6786 309.243 31.1664 310.384 33.4472L311.278 33L312.172 32.5527C311.18 30.5668 310.678 28.3879 310.678 26H309.678ZM311.278 33L310.389 33.4586C311.535 35.6774 313.152 37.4747 315.23 38.8364L315.778 38L316.326 37.1635C314.538 35.9919 313.155 34.4558 312.167 32.5413L311.278 33ZM315.778 38L315.264 38.8574C317.44 40.1634 319.957 40.7999 322.778 40.7999V39.7999V38.7999C320.266 38.7999 318.116 38.2365 316.293 37.1425L315.778 38ZM322.778 39.7999V40.7999C325.599 40.7999 328.088 40.1637 330.205 38.8496L329.678 38L329.151 37.1503C327.401 38.2362 325.291 38.7999 322.778 38.7999V39.7999ZM329.678 38L330.213 38.8448C332.36 37.4848 334.017 35.686 335.167 33.4586L334.278 33L333.389 32.5413C332.406 34.4472 330.996 35.9817 329.143 37.1551L329.678 38ZM334.278 33L335.172 33.4472C336.313 31.1664 336.878 28.6786 336.878 26H335.878H334.878C334.878 28.3879 334.377 30.5668 333.384 32.5527L334.278 33ZM335.878 26H336.878V2.19994H335.878H334.878V26H335.878ZM335.878 2.19994V3.19994H352.278V2.19994V1.19994H335.878V2.19994ZM352.278 2.19994H351.278V25.0999H352.278H353.278V2.19994H352.278ZM352.278 25.0999H351.278C351.278 29.984 350.432 34.2739 348.766 37.9909L349.678 38.3999L350.591 38.809C352.391 34.7926 353.278 30.2159 353.278 25.0999H352.278ZM349.678 38.3999L348.768 37.9849C347.099 41.6442 344.73 44.6833 341.657 47.1159L342.278 47.8999L342.899 48.684C346.226 46.0499 348.79 42.7556 350.588 38.815L349.678 38.3999ZM342.278 47.8999L341.657 47.1159C338.585 49.5483 334.993 51.2199 330.864 52.123L331.078 53.0999L331.292 54.0769C335.696 53.1133 339.571 51.3183 342.899 48.684L342.278 47.8999ZM331.078 53.0999H330.078V72.2H331.078H332.078V53.0999H331.078ZM331.078 72.2V71.2H314.378V72.2V73.2H331.078V72.2Z" fill="#570342" mask="url(#path-1-outside-1_2004_326)"/>
</svg>
