<svg width="68" height="40" viewBox="0 0 68 40" fill="none" xmlns="http://www.w3.org/2000/svg">
<path d="M21.5445 25.28C20.2245 25.28 19.0645 25.0333 18.0645 24.54C17.0779 24.0467 16.3045 23.2867 15.7445 22.26C15.1979 21.2333 14.9245 19.9267 14.9245 18.34C14.9245 16.0467 15.5045 14.3133 16.6645 13.14C17.8379 11.9667 19.4645 11.38 21.5445 11.38C22.8645 11.38 24.0179 11.6267 25.0045 12.12C26.0045 12.6133 26.7779 13.3733 27.3245 14.4C27.8845 15.4133 28.1645 16.72 28.1645 18.32C28.1645 20.6133 27.5845 22.3467 26.4245 23.52C25.2645 24.6933 23.6379 25.28 21.5445 25.28ZM21.5445 22.36C22.1445 22.36 22.6579 22.2333 23.0845 21.98C23.5112 21.7267 23.8379 21.3067 24.0645 20.72C24.3045 20.12 24.4245 19.3133 24.4245 18.3C24.4245 17.3 24.3045 16.5067 24.0645 15.92C23.8379 15.3333 23.5112 14.92 23.0845 14.68C22.6579 14.4267 22.1445 14.3 21.5445 14.3C20.9445 14.3 20.4312 14.4333 20.0045 14.7C19.5779 14.9533 19.2445 15.3733 19.0045 15.96C18.7779 16.5467 18.6645 17.3467 18.6645 18.36C18.6645 19.36 18.7779 20.1533 19.0045 20.74C19.2445 21.3133 19.5779 21.7267 20.0045 21.98C20.4312 22.2333 20.9445 22.36 21.5445 22.36ZM36.2892 25.28C34.1292 25.28 32.4759 24.72 31.3292 23.6C30.1959 22.48 29.6292 20.7267 29.6292 18.34C29.6292 16.0333 30.1692 14.2933 31.2492 13.12C32.3426 11.9333 34.0226 11.34 36.2892 11.34C36.9959 11.34 37.7092 11.4267 38.4292 11.6C39.1626 11.7733 39.8759 12.0133 40.5692 12.32V15.44C39.8492 14.96 39.1692 14.62 38.5292 14.42C37.8892 14.2067 37.3092 14.1 36.7892 14.1C36.0692 14.1 35.4559 14.2333 34.9492 14.5C34.4426 14.7533 34.0492 15.1867 33.7692 15.8C33.5026 16.4133 33.3692 17.2667 33.3692 18.36C33.3692 19.4133 33.5092 20.2467 33.7892 20.86C34.0692 21.4733 34.4692 21.9067 34.9892 22.16C35.5226 22.4 36.1759 22.52 36.9492 22.52C37.4026 22.52 37.9359 22.42 38.5492 22.22C39.1759 22.02 39.8492 21.6867 40.5692 21.22V24.34C40.2092 24.5267 39.7826 24.6933 39.2892 24.84C38.8092 24.9733 38.3026 25.08 37.7692 25.16C37.2492 25.24 36.7559 25.28 36.2892 25.28ZM49.2464 25.46C47.1264 25.46 45.5397 25.0333 44.4864 24.18C43.4464 23.3267 42.9264 21.9733 42.9264 20.12V11.66H46.7064V19.92C46.7064 20.8667 46.8864 21.5667 47.2464 22.02C47.6197 22.4733 48.2264 22.7 49.0664 22.7C49.8131 22.7 50.3931 22.4733 50.8064 22.02C51.2197 21.5667 51.4264 20.8667 51.4264 19.92V11.66H54.8664V20.12C54.8664 21.36 54.6264 22.3733 54.1464 23.16C53.6664 23.9467 52.9997 24.5267 52.1464 24.9C51.3064 25.2733 50.3397 25.46 49.2464 25.46ZM62.2144 25.28C61.5477 25.28 60.9277 25.2533 60.3544 25.2C59.781 25.1467 59.2477 25.06 58.7544 24.94C58.2744 24.8067 57.8144 24.6333 57.3744 24.42V21.02C58.041 21.54 58.7677 21.9267 59.5544 22.18C60.341 22.42 61.0544 22.54 61.6944 22.54C62.201 22.54 62.6077 22.4467 62.9144 22.26C63.221 22.0733 63.3744 21.7533 63.3744 21.3C63.3744 20.9933 63.221 20.7467 62.9144 20.56C62.621 20.36 62.221 20.1867 61.7144 20.04C61.221 19.88 60.661 19.6933 60.0344 19.48C59.661 19.3467 59.2944 19.1867 58.9344 19C58.5877 18.8133 58.2744 18.58 57.9944 18.3C57.7144 18.02 57.4877 17.6733 57.3144 17.26C57.141 16.8467 57.0544 16.3467 57.0544 15.76C57.0544 15.1733 57.161 14.6133 57.3744 14.08C57.601 13.5467 57.9344 13.0733 58.3744 12.66C58.8144 12.2467 59.3744 11.9267 60.0544 11.7C60.7344 11.46 61.5277 11.34 62.4344 11.34C62.981 11.34 63.4744 11.3733 63.9144 11.44C64.3544 11.4933 64.7677 11.5867 65.1544 11.72C65.5544 11.8533 65.9544 12.02 66.3544 12.22V15.66C66.061 15.4067 65.7144 15.1667 65.3144 14.94C64.9277 14.7133 64.521 14.52 64.0944 14.36C63.6677 14.2 63.241 14.1067 62.8144 14.08C62.4544 14.0667 62.1144 14.1 61.7944 14.18C61.4877 14.2467 61.2344 14.3733 61.0344 14.56C60.8477 14.7467 60.7544 15 60.7544 15.32C60.7544 15.6533 60.861 15.92 61.0744 16.12C61.301 16.3067 61.6077 16.4667 61.9944 16.6C62.3944 16.72 62.8344 16.8467 63.3144 16.98C63.8744 17.14 64.381 17.32 64.8344 17.52C65.301 17.72 65.701 17.9667 66.0344 18.26C66.3677 18.5533 66.6277 18.9133 66.8144 19.34C67.001 19.7533 67.0944 20.26 67.0944 20.86C67.0944 21.7133 66.8944 22.4733 66.4944 23.14C66.0944 23.8067 65.5277 24.3333 64.7944 24.72C64.0744 25.0933 63.2144 25.28 62.2144 25.28Z" fill="#B30BBC"/>
<path d="M5 0V30C5 32.7614 7.23858 35 10 35H24" stroke="#B30BBC" stroke-width="10" stroke-linejoin="round"/>
</svg>
